<svg width="512" height="512" viewBox="0 0 512 512" fill="none" xmlns="http://www.w3.org/2000/svg">
<rect width="512" height="512" rx="120" fill="#F6F7FE"/>
<path opacity="0.5" d="M97.125 228.462C97.125 171.838 97.125 143.526 103.81 134.001C110.495 124.476 137.116 115.364 190.358 97.139L200.501 93.6669C228.255 84.1668 242.131 79.4167 256.5 79.4167C270.869 79.4167 284.745 84.1668 312.499 93.6669L322.642 97.139C375.884 115.364 402.505 124.476 409.19 134.001C415.875 143.526 415.875 171.838 415.875 228.462C415.875 237.014 415.875 246.289 415.875 256.348C415.875 356.187 340.809 404.639 293.712 425.213C280.938 430.792 274.55 433.583 256.5 433.583C238.45 433.583 232.062 430.792 219.287 425.213C172.19 404.639 97.125 356.187 97.125 256.348C97.125 246.289 97.125 237.014 97.125 228.462Z" stroke="#5F48F1" stroke-width="40"/>
<path d="M212.229 263.583L237.527 291.917L300.771 221.083" stroke="#5F48F1" stroke-width="40" stroke-linecap="round" stroke-linejoin="round"/>
</svg>
